<svg xmlns="http://www.w3.org/2000/svg"
     width="32"
     height="32"
     viewBox="0 0 32 32">

    <!-- calendário -->
    <path fill="#fff"
          d="M8 4a1 1 0 0 1 1 1v1h14V5a1 1 0 1 1 2 0v1h1a3 3 0 0 1 3 3v15a4 4 0 0 1-4 4H7a4 4 0 0 1-4-4V9a3 3 0 0 1 3-3h1V5a1 1 0 0 1 1-1zm17 10H7v10a2 2 0 0 0 2 2h14a2 2 0 0 0 2-2V14z"/>

    <!-- relógio -->
    <circle fill="#fff"
            cx="16"
            cy="19"
            r="5"/>

    <!-- ponteiros -->
    <path fill="#0b0b0b"
          d="M16 16.5a.8.8 0 0 1 .8.8v1.4l1.3.8a.8.8 0 1 1-.8 1.3l-1.7-1a.8.8 0 0 1-.4-.7v-1.8a.8.8 0 0 1 .8-.8z"/>
</svg>
